<svg version="1.1" id="Layer_1" xmlns="http://www.w3.org/2000/svg" xmlns:xlink="http://www.w3.org/1999/xlink" x="0px" y="0px"
	 width="100%" viewBox="0 0 736 736" enable-background="new 0 0 736 736" xml:space="preserve">
<path fill="#000000" opacity="1.000000" stroke="none" 
	d="
M322.449707,512.638672 
	C324.672272,523.996826 327.028290,534.894714 328.934509,545.870667 
	C329.497772,549.113708 330.552338,550.658020 333.879211,550.434204 
	C335.534851,550.322937 337.210602,550.340515 338.867371,550.449707 
	C343.269592,550.739746 344.945282,548.435486 345.539673,544.330566 
	C349.116241,519.629883 352.662140,494.921967 356.617432,470.280579 
	C357.808990,462.857208 352.630341,458.257263 350.294891,452.407501 
	C349.023987,449.224213 346.649567,446.496338 345.936188,442.295654 
	C362.837219,442.295654 379.427948,442.295654 396.456085,442.295654 
	C395.064331,447.684296 392.089508,451.959991 389.509583,456.287415 
	C385.716858,462.649109 384.925385,468.944244 386.176697,476.271851 
	C390.149750,499.538055 393.570007,522.900391 397.007690,546.254456 
	C397.507385,549.649292 398.809601,550.977783 402.123108,550.614197 
	C403.440399,550.469604 404.799896,550.469543 406.117554,550.612244 
	C410.654144,551.103455 412.734711,548.993896 413.546448,544.601624 
	C417.836731,521.386292 422.279938,498.199249 426.693298,475.006805 
	C429.646393,459.488312 432.802673,444.005768 435.505524,428.444153 
	C436.249420,424.161133 438.299957,423.246979 441.984924,423.804993 
	C466.294312,427.486053 486.975983,437.980865 502.971313,456.865753 
	C518.817688,475.574768 525.877930,497.524078 525.959961,521.868591 
	C526.002625,534.533325 525.839905,547.201416 526.094849,559.861389 
	C526.189270,564.550842 524.815308,566.175537 519.883667,566.168518 
	C425.896942,566.034119 331.909943,566.070557 237.923035,566.072754 
	C232.257217,566.072876 226.591415,566.089355 220.925598,566.087097 
	C218.548370,566.086121 216.610367,565.617798 216.614777,562.574463 
	C216.643188,542.953613 215.040115,523.265198 217.662689,503.737396 
	C222.854172,465.081085 254.836060,432.007507 293.343170,424.891846 
	C305.155853,422.708984 305.273926,422.686096 307.627686,434.823364 
	C312.627411,460.604370 317.491547,486.411682 322.449707,512.638672 
z"/>
<path fill="#000000" opacity="1.000000" stroke="none" 
	d="
M273.173035,378.718201 
	C272.475769,377.347839 271.814087,376.349884 271.459991,375.252716 
	C268.337952,365.579437 264.022003,358.480865 252.332520,355.815094 
	C241.583954,353.363953 236.887421,343.330994 236.747086,332.135620 
	C236.689011,327.504089 236.322113,322.862000 237.488831,318.224365 
	C239.705688,309.412659 245.148285,303.373047 253.423187,300.359650 
	C257.766174,298.778076 258.937164,296.506805 258.706238,292.286285 
	C257.682343,273.570648 261.545685,255.916855 270.514984,239.391464 
	C282.439758,217.420807 300.137878,201.978683 323.235443,192.678802 
	C327.717133,190.874329 332.013763,188.994675 336.050354,186.191193 
	C343.372406,181.105927 351.898315,178.492920 360.421326,176.173492 
	C365.036896,174.917419 368.419739,177.986664 371.461395,180.764679 
	C374.159882,183.229294 376.430054,185.130341 380.539490,183.737701 
	C383.578308,182.707886 386.227570,185.608093 389.490692,185.945389 
	C431.991486,190.338394 462.137360,211.803391 478.331818,251.697372 
	C483.773834,265.103394 485.863739,279.279694 484.940491,293.766632 
	C484.731293,297.049225 485.352417,298.741699 488.681946,300.139709 
	C499.790039,304.803925 505.392700,313.414154 505.301239,325.552094 
	C505.272400,329.377563 505.561981,333.282867 504.908478,337.011871 
	C502.848785,348.764099 494.558746,356.476471 481.790771,358.669312 
	C478.538757,359.227814 476.574585,360.248871 475.319214,363.657501 
	C460.687866,403.385254 431.782867,426.969543 390.772675,434.578186 
	C344.127655,443.232239 296.819885,422.205444 273.173035,378.718201 
M306.073883,394.431854 
	C320.912537,408.581390 338.653015,417.301666 358.854095,419.402985 
	C395.024139,423.165314 425.275818,411.045959 447.201691,381.599091 
	C463.286865,359.996368 467.924225,335.512054 461.203979,309.153503 
	C460.487366,306.342896 459.418182,304.563354 456.008026,304.217926 
	C424.525818,301.029205 393.677765,294.156647 362.753418,287.776306 
	C348.758209,284.888824 334.861877,281.524139 320.902985,278.456512 
	C318.403107,277.907104 316.037842,277.109222 313.893341,280.132904 
	C306.407501,290.687592 296.881592,299.339172 286.394623,306.753082 
	C280.904053,310.634735 278.774414,315.448456 278.306854,321.751678 
	C276.206635,350.063660 285.244843,374.116516 306.073883,394.431854 
M261.123169,316.048920 
	C259.474487,314.932281 258.265869,316.101776 257.146454,316.966705 
	C250.675613,321.966217 252.445786,337.873718 259.850769,341.447662 
	C260.069855,341.553406 260.453644,341.317780 261.466431,341.065552 
	C260.468292,333.029785 261.778992,324.876587 261.123169,316.048920 
M483.680664,316.163666 
	C480.760773,315.134552 480.397339,317.491882 480.467743,319.131958 
	C480.783142,326.480194 481.685242,333.803772 480.284546,341.484985 
	C490.351715,338.451447 492.086792,324.069672 483.680664,316.163666 
z"/>
</svg>